<?xml version="1.0" encoding="UTF-8" standalone="no"?>
<!DOCTYPE svg PUBLIC "-//W3C//DTD SVG 1.1//EN"
 "http://www.w3.org/Graphics/SVG/1.1/DTD/svg11.dtd">
<!-- Generated by graphviz version 8.1.0 (20230707.0739)
 -->
<!-- Title: cudaFlow Pages: 1 -->
<svg width="315pt" height="265pt"
 viewBox="0.00 0.00 315.08 264.50" xmlns="http://www.w3.org/2000/svg" xmlns:xlink="http://www.w3.org/1999/xlink">
<g id="graph0" class="graph" transform="scale(1 1) rotate(0) translate(4 260.5)">
<title>cudaFlow</title>
<polygon fill="white" stroke="none" points="-4,4 -4,-260.5 311.08,-260.5 311.08,4 -4,4"/>
<g id="clust1" class="cluster">
<title>cluster_p0x274c50c0</title>
<polygon fill="none" stroke="purple" points="109.08,-64 109.08,-212.5 299.08,-212.5 299.08,-64 109.08,-64"/>
<text text-anchor="middle" x="204.08" y="-195.2" font-family="Times,serif" font-size="14.00">cudaSubflow: autocorrelate_dsp</text>
</g>
<!-- p0x274d89c0 -->
<g id="node1" class="node">
<title>p0x274d89c0</title>
<ellipse fill="none" stroke="black" cx="61.08" cy="-238.5" rx="61.08" ry="18"/>
<text text-anchor="middle" x="61.08" y="-233.45" font-family="Times,serif" font-size="14.00">p0x274d89c0</text>
</g>
<!-- p0x274d8730 -->
<g id="node2" class="node">
<title>p0x274d8730</title>
<polygon fill="black" stroke="white" points="99.83,-180 26.33,-180 22.33,-176 22.33,-144 95.83,-144 99.83,-148 99.83,-180"/>
<polyline fill="none" stroke="white" points="95.83,-176 22.33,-176"/>
<polyline fill="none" stroke="white" points="95.83,-176 95.83,-144"/>
<polyline fill="none" stroke="white" points="95.83,-176 99.83,-180"/>
<text text-anchor="middle" x="61.08" y="-156.95" font-family="Times,serif" font-size="14.00" fill="white">self_scatter</text>
</g>
<!-- p0x274d89c0&#45;&gt;p0x274d8730 -->
<g id="edge1" class="edge">
<title>p0x274d89c0&#45;&gt;p0x274d8730</title>
<path fill="none" stroke="black" d="M61.08,-220.22C61.08,-211.63 61.08,-201.03 61.08,-191.3"/>
<polygon fill="black" stroke="black" points="64.58,-191.44 61.08,-181.44 57.58,-191.44 64.58,-191.44"/>
</g>
<!-- p0x274bdb60 -->
<g id="node3" class="node">
<title>p0x274bdb60</title>
<polygon fill="black" stroke="white" points="192.08,-36 142.08,-36 138.08,-32 138.08,0 188.08,0 192.08,-4 192.08,-36"/>
<polyline fill="none" stroke="white" points="188.08,-32 138.08,-32"/>
<polyline fill="none" stroke="white" points="188.08,-32 188.08,0"/>
<polyline fill="none" stroke="white" points="188.08,-32 192.08,-36"/>
<text text-anchor="middle" x="165.08" y="-12.95" font-family="Times,serif" font-size="14.00" fill="white">store</text>
</g>
<!-- p0x274d8730&#45;&gt;p0x274bdb60 -->
<g id="edge2" class="edge">
<title>p0x274d8730&#45;&gt;p0x274bdb60</title>
<path fill="none" stroke="black" d="M65.97,-143.81C72.45,-123.24 85.39,-88.51 105.08,-64 111.79,-55.64 120.4,-47.99 128.98,-41.48"/>
<polygon fill="black" stroke="black" points="130.77,-43.79 136.84,-35.11 126.68,-38.1 130.77,-43.79"/>
</g>
<!-- p0x27426780 -->
<g id="node4" class="node">
<title>p0x27426780</title>
<polygon fill="black" stroke="white" points="110.83,-36 31.33,-36 27.33,-32 27.33,0 106.83,0 110.83,-4 110.83,-36"/>
<polyline fill="none" stroke="white" points="106.83,-32 27.33,-32"/>
<polyline fill="none" stroke="white" points="106.83,-32 106.83,0"/>
<polyline fill="none" stroke="white" points="106.83,-32 110.83,-36"/>
<text text-anchor="middle" x="69.08" y="-12.95" font-family="Times,serif" font-size="14.00" fill="white">store_atfinal</text>
</g>
<!-- p0x274d8730&#45;&gt;p0x27426780 -->
<g id="edge3" class="edge">
<title>p0x274d8730&#45;&gt;p0x27426780</title>
<path fill="none" stroke="black" d="M62.06,-143.59C63.41,-119.5 65.88,-75.75 67.5,-47.03"/>
<polygon fill="black" stroke="black" points="71.04,-47.29 68.11,-37.11 64.05,-46.9 71.04,-47.29"/>
</g>
<!-- p0x274c50c0 -->
<g id="node5" class="node">
<title>p0x274c50c0</title>
<polygon fill="purple" stroke="black" points="230.08,-108 227.08,-112 206.08,-112 203.08,-108 118.08,-108 118.08,-72 230.08,-72 230.08,-108"/>
<text text-anchor="middle" x="174.08" y="-84.95" font-family="Times,serif" font-size="14.00" fill="white">autocorrelate_dsp</text>
</g>
<!-- p0x274d8730&#45;&gt;p0x274c50c0 -->
<g id="edge4" class="edge">
<title>p0x274d8730&#45;&gt;p0x274c50c0</title>
<path fill="none" stroke="black" d="M89.3,-143.52C103.7,-134.6 121.4,-123.63 136.9,-114.03"/>
<polygon fill="black" stroke="black" points="138.55,-116.5 145.21,-108.26 134.87,-110.55 138.55,-116.5"/>
</g>
<!-- p0x274c50c0&#45;&gt;p0x274bdb60 -->
<g id="edge5" class="edge">
<title>p0x274c50c0&#45;&gt;p0x274bdb60</title>
<path fill="none" stroke="black" d="M171.85,-71.7C170.89,-64.24 169.75,-55.32 168.67,-46.97"/>
<polygon fill="black" stroke="black" points="172.02,-46.58 167.27,-37.1 165.08,-47.47 172.02,-46.58"/>
</g>
<!-- p0x274c50c0&#45;&gt;p0x27426780 -->
<g id="edge6" class="edge">
<title>p0x274c50c0&#45;&gt;p0x27426780</title>
<path fill="none" stroke="black" d="M147.85,-71.52C134.6,-62.68 118.33,-51.84 104.03,-42.3"/>
<polygon fill="black" stroke="black" points="106.23,-38.9 95.97,-36.26 102.35,-44.72 106.23,-38.9"/>
</g>
<!-- p0x274cf200 -->
<g id="node6" class="node">
<title>p0x274cf200</title>
<ellipse fill="none" stroke="black" cx="177.08" cy="-162" rx="59.54" ry="18"/>
<text text-anchor="middle" x="177.08" y="-156.95" font-family="Times,serif" font-size="14.00">p0x274cf200</text>
</g>
<!-- p0x274cf200&#45;&gt;p0x274c50c0 -->
<g id="edge7" class="edge">
<title>p0x274cf200&#45;&gt;p0x274c50c0</title>
<path fill="none" stroke="black" d="M176.33,-143.7C176.01,-136.24 175.63,-127.32 175.27,-118.97"/>
<polygon fill="black" stroke="black" points="178.73,-118.95 174.81,-109.1 171.74,-119.25 178.73,-118.95"/>
</g>
</g>
</svg>
